HIERARCHY
ROOT Hips
{
	OFFSET	0.00	0.00	0.00
	CHANNELS 6 Xposition Yposition Zposition Zrotation Xrotation Yrotation
	JOINT LeftUpLeg
	{
		OFFSET	 0.126116	-0.014019	-0.065224
		CHANNELS 3 Zrotation Xrotation Yrotation
		JOINT LeftLeg
		{
			OFFSET	 0.000000	 0.000000	 0.569914
			CHANNELS 3 Zrotation Xrotation Yrotation
			JOINT LeftFoot
			{
				OFFSET	 0.000000	 0.000000	 0.544423
				CHANNELS 3 Zrotation Xrotation Yrotation
				JOINT LeftToeBase
				{
					OFFSET	 0.000000	 0.000000	 0.207117
					CHANNELS 3 Zrotation Xrotation Yrotation
					End Site
					{
						OFFSET	 0.000000	 0.000000	 0.207117
					}
				}
			}
		}
	}
	JOINT RightUpLeg
	{
		OFFSET	-0.124023	-0.008373	-0.065224
		CHANNELS 3 Zrotation Xrotation Yrotation
		JOINT RightLeg
		{
			OFFSET	 0.000000	 0.000000	 0.570047
			CHANNELS 3 Zrotation Xrotation Yrotation
			JOINT RightFoot
			{
				OFFSET	 0.000000	 0.000000	 0.544354
				CHANNELS 3 Zrotation Xrotation Yrotation
				JOINT RightToeBase
				{
					OFFSET	 0.000000	 0.000000	 0.207540
					CHANNELS 3 Zrotation Xrotation Yrotation
					End Site
					{
						OFFSET	 0.000000	 0.000000	 0.207540
					}
				}
			}
		}
	}
	JOINT Spine
	{
		OFFSET	 0.000184	-0.007763	 0.117403
		CHANNELS 3 Zrotation Xrotation Yrotation
		JOINT Spine1
		{
			OFFSET	 0.000000	 0.000000	 0.137269
			CHANNELS 3 Zrotation Xrotation Yrotation
			JOINT Spine2
			{
				OFFSET	 0.000000	 0.000000	 0.156879
				CHANNELS 3 Zrotation Xrotation Yrotation
				JOINT LeftShoulder
				{
					OFFSET	 0.080501	-0.002496	 0.160144
					CHANNELS 3 Zrotation Xrotation Yrotation
					JOINT LeftArm
					{
						OFFSET	 0.000000	 0.000000	 0.164363
						CHANNELS 3 Zrotation Xrotation Yrotation
						JOINT LeftForeArm
						{
							OFFSET	 0.000000	 0.000000	 0.364576
							CHANNELS 3 Zrotation Xrotation Yrotation
							JOINT LeftHand
							{
								OFFSET	 0.000000	 0.000000	 0.360812
								CHANNELS 3 Zrotation Xrotation Yrotation
								JOINT LeftHandIndex1
								{
									OFFSET	 0.000000	 0.000000	 0.086006
									CHANNELS 3 Zrotation Xrotation Yrotation
									JOINT LeftHandIndex2
									{
										OFFSET	 0.000000	 0.000000	 0.047237
										CHANNELS 3 Zrotation Xrotation Yrotation
										JOINT LeftHandIndex3
										{
											OFFSET	-0.004284	-0.000551	 0.038165
											CHANNELS 3 Zrotation Xrotation Yrotation
											End Site
											{
												OFFSET	-0.004284	-0.000551	 0.038165
											}
										}
									}
								}
							}
						}
					}
				}
				JOINT Neck
				{
					OFFSET	 0.000000	 0.000000	 0.176489
					CHANNELS 3 Zrotation Xrotation Yrotation
					JOINT Head
					{
						OFFSET	 0.000000	-0.001747	 0.077940
						CHANNELS 3 Zrotation Xrotation Yrotation
						End Site
						{
							OFFSET	 0.000000	-0.001747	 0.077940
						}
					}
				}
				JOINT RightShoulder
				{
					OFFSET	-0.080363	 0.000306	 0.159706
					CHANNELS 3 Zrotation Xrotation Yrotation
					JOINT RightArm
					{
						OFFSET	 0.000000	 0.000000	 0.164196
						CHANNELS 3 Zrotation Xrotation Yrotation
						JOINT RightForeArm
						{
							OFFSET	 0.000000	 0.000000	 0.365611
							CHANNELS 3 Zrotation Xrotation Yrotation
							JOINT RightHand
							{
								OFFSET	 0.000000	 0.000000	 0.360648
								CHANNELS 3 Zrotation Xrotation Yrotation
								JOINT RightHandIndex1
								{
									OFFSET	 0.000000	 0.000000	 0.069977
									CHANNELS 3 Zrotation Xrotation Yrotation
									JOINT RightHandIndex2
									{
										OFFSET	 0.000000	 0.000000	 0.052305
										CHANNELS 3 Zrotation Xrotation Yrotation
										JOINT RightHandIndex3
										{
											OFFSET	 0.009002	-0.000782	 0.042196
											CHANNELS 3 Zrotation Xrotation Yrotation
											End Site
											{
												OFFSET	 0.009002	-0.000782	 0.042196
											}
										}
									}
								}
							}
						}
					}
				}
			}
		}
	}
}
MOTION
Frames:    4
Frame Time: 0.03333334
-0.719404	-1.659176	 1.275441	-176.964200	 6.038285	-1.192278	-3.913850	-7.999586	 179.541300	-0.811455	-11.896510	 0.235168	-20.033530	 56.015300	 9.922837	-2.385833	 28.452760	 0.000004	-2.824435	-10.975910	-178.521100	-4.785432	-17.077720	 1.801998	 3.939491	 79.562870	 5.572234	 2.384659	 28.388700	-0.000001	-3.407311	 7.302244	 2.423528	-1.818680	-13.840290	-14.448970	 2.365526	-4.800793	 17.592440	-91.776090	 78.527430	 180.000000	-35.079410	-7.151315	-17.080090	-5.522540	-0.084251	-0.538484	 8.730815	 2.835557	-4.356863	-4.131196	 21.524690	 0.986298	-5.167839	 0.733520	 3.519257	-1.378229	 35.397820	-2.634230	 1.611914	 7.552372	 0.403818	-15.410690	-8.922106	-5.137595	 89.782080	 78.203890	-180.000000	 10.150650	 9.450718	-12.307610	 2.849405	-17.700030	 59.979400	-10.555780	 57.506140	 34.640660	 5.715225	 19.176060	-3.692089	 5.027514	 0.245388	-9.378011	-2.350882	 35.473990	 5.254307
-0.716181	-1.654341	 1.274370	-176.558700	 6.438691	-1.972302	-3.409858	-9.444006	 179.709100	-0.075432	-15.544970	 0.503105	-22.207020	 55.665090	 12.375920	-2.385833	 28.452760	 0.000004	-0.139081	-12.795550	-177.343400	-5.680619	-19.080580	 1.710518	 5.606727	 84.141610	 4.888587	 2.384659	 28.388700	-0.000001	-4.980500	 6.956978	 3.090235	-3.130523	-12.708690	-15.465750	 2.667536	-5.342609	 17.968310	-91.776250	 78.527400	-179.999900	-34.988670	 1.696882	 4.912961	-8.830256	-6.081429	-44.274490	 7.819434	 2.272038	-4.080971	-4.131196	 21.524690	 0.986298	-5.167839	 0.733520	 3.519257	-1.378229	 35.397820	-2.634230	 1.475611	 8.044388	 0.963544	-15.179170	-9.198880	-5.135509	 89.782070	 78.203920	-180.000000	 8.297445	 13.689220	-15.314520	 5.010515	-18.939590	 67.147870	-8.548173	 57.549040	 33.427070	 5.715225	 19.176060	-3.692089	 5.027514	 0.245388	-9.378011	-2.350882	 35.473990	 5.254307
-0.715093	-1.652700	 1.273994	-176.518100	 6.491922	-2.085943	-3.432443	-9.796369	 179.605500	 0.253081	-16.732580	 0.635179	-23.231820	 55.914660	 13.360110	-2.385833	 28.452760	 0.000004	 0.499095	-13.432310	-177.107900	-5.991671	-19.960250	 1.679282	 10.364090	 85.153950	 0.391700	 2.384659	 28.388700	-0.000001	-5.400937	 6.729140	 3.191922	-3.565778	-11.860380	-15.889250	 2.826663	-5.734298	 18.177150	-91.776210	 78.527360	-180.000000	-34.213030	 3.602289	 8.728694	-9.763928	-6.675887	-51.583000	 7.688612	 2.196645	-4.035823	-4.131196	 21.524690	 0.986298	-5.167839	 0.733520	 3.519257	-1.378229	 35.397820	-2.634230	 1.437716	 8.007260	 1.077718	-15.132670	-9.048038	-5.067441	 89.782200	 78.203900	 179.999900	 7.366298	 15.074500	-16.104050	 5.734047	-19.112480	 69.276370	-7.848595	 56.374230	 31.903740	 5.715225	 19.176060	-3.692089	 5.027514	 0.245388	-9.378011	-2.350882	 35.473990	 5.254307
-0.706719	-1.638750	 1.271461	-176.406800	 7.088132	-2.543328	-4.723629	-11.438950	 178.271700	 2.450368	-23.923760	 1.788242	-31.228110	 57.624560	 21.248820	-2.385833	 28.452760	 0.000004	 2.702748	-18.245400	-175.481900	-6.872089	-25.414410	 1.731071	 53.020930	 85.973090	-41.727280	 2.384659	 28.388700	-0.000001	-8.786004	 4.732023	 3.319646	-6.959594	-4.188885	-19.300780	 4.611964	-9.516299	 20.591420	-91.776210	 78.527420	 180.000000	-27.031000	 19.645940	 25.544520	-14.710630	-7.307800	-87.520840	 6.914340	 1.774260	-3.782842	-4.131196	 21.524690	 0.986298	-5.167839	 0.733520	 3.519257	-1.378229	 35.397820	-2.634230	 1.496747	 8.055435	 1.286201	-14.980740	-9.043266	-5.043326	 89.782110	 78.203890	 180.000000	-0.130630	 27.778920	-18.947740	 9.517653	-19.698260	 80.426670	-10.749070	 45.610550	 27.954240	 5.715225	 19.176060	-3.692089	 5.027514	 0.245388	-9.378011	-2.350882	 35.473990	 5.254307
